# xmcd
#
# Track frame offsets:
#	150
#	21474
#	41992
#	60640
#	87641
#	102235
#	121765
#	136649
#	162322
#	180760
#	197320
#	213601
#
# Disc length: 3097 seconds
#
# Revision: 0
# Processed by: cddbd v1.5.2PL0 Copyright (c) Steve Scherf et al.
# Submitted via: dBpowerAMP V4.0
#
DISCID=9f0c170c
DTITLE=Various Artist - Budlight Best in Texas
DYEAR=1900
DGENRE=Country
TTITLE0=Roger Creagor - Movin On
TTITLE1=Randy Rogers Band - This Time Around
TTITLE2=Cross Canadian Ragweed - SS #10
TTITLE3=Reckless Kelly - Motel Cowboy Show
TTITLE4=Kevin Fowler - What I wouldn't Give for your love
TTITLE5=Eli Young Band - When it Rains
TTITLE6=Randy Rogers Band - Ten Miles Deep
TTITLE7=Roger Creagor - I Got the Guns
TTITLE8=Kevin Fowler - There's a fool born everyday
TTITLE9=Reckless Kelly - Break my Heart tonight
TTITLE10=Eli Young Band - So Close Now
TTITLE11=Cross Canadian Ragweed - Blues for You
EXTD=
EXTT0=
EXTT1=
EXTT2=
EXTT3=
EXTT4=
EXTT5=
EXTT6=
EXTT7=
EXTT8=
EXTT9=
EXTT10=
EXTT11=
PLAYORDER=
